<svg xmlns="http://www.w3.org/2000/svg" fill="none" viewBox="0 0 24 24" id="Apache-Spark--Streamline-Svg-Logos" height="24" width="24">
  <desc>
    Apache Spark Streamline Icon: https://streamlinehq.com
  </desc>
  <path fill="#e25a1c" d="M21.74615 12.063325c-0.020375 -0.043525 -0.029525 -0.0654 -0.0405 -0.0863 -0.294475 -0.560175 -0.5882 -1.120375 -0.8857 -1.68055 -0.029825 -0.056175 -0.02605 -0.089325 0.01475 -0.137775 0.4686 -0.547325 0.931125 -1.097675 1.400475 -1.642725 0.016575 -0.019225 0.03135 -0.039575 0.03755 -0.073875 -0.13625 0.0355 -0.272525 0.070625 -0.40955 0.10675 -0.565475 0.149875 -1.1355 0.299 -1.6957 0.451175 -0.0526 0.01415 -0.07645 -0.001225 -0.10295 -0.044975 -0.320975 -0.536725 -0.6442 -1.07495 -0.968975 -1.60485 -0.016575 -0.0278 -0.03465 -0.05475 -0.070075 -0.077975 -0.02605 0.143075 -0.0524 0.2854 -0.077975 0.428475 -0.0901 0.5049 -0.180175 1.0068 -0.2695 1.514 -0.009775 0.054425 -0.0231 0.109025 -0.027775 0.163525 -0.004475 0.052075 -0.03135 0.0713 -0.07875 0.0863 -0.666925 0.209675 -1.332325 0.4209 -1.9985 0.6321 -0.0292 0.00915 -0.0579 0.021275 -0.089325 0.04965 0.54505 0.2165 1.0901 0.433 1.642725 0.6533 -0.02015 0.015975 -0.033475 0.0284 -0.048225 0.03785 -0.34065 0.2203 -0.682075 0.440575 -1.021975 0.661625 -0.0408 0.02665 -0.07305 0.030425 -0.11885 0.009775 -0.407275 -0.1832 -0.81755 -0.363375 -1.22635 -0.54505 -0.1832 -0.08175 -0.34745 -0.190025 -0.4754 -0.347475 -0.289925 -0.354275 -0.2324 -0.757 0.153675 -1.006825 0.126425 -0.081 0.27025 -0.1408 0.413325 -0.187725 0.6533 -0.212725 1.309625 -0.417875 1.96065 -0.623775 0.05495 -0.0175 0.08025 -0.042025 0.09085 -0.10145 0.0878 -0.505675 0.1779 -1.014375 0.2695 -1.514 0.04875 -0.27025 0.074475 -0.546575 0.2059 -0.794875 0.050325 -0.095375 0.110525 -0.188475 0.1832 -0.267975 0.2604 -0.289175 0.623 -0.299775 0.900825 -0.024825 0.093125 0.0931 0.1726 0.202125 0.2415 0.314925 0.3028 0.494325 0.60105 0.991675 0.900825 1.4913 0.0352 0.058825 0.06685 0.070625 0.131725 0.053525 0.7305 -0.196075 1.461025 -0.389125 2.195325 -0.58215 0.1514 -0.0399 0.30355 -0.05435 0.45875 -0.02535 0.336875 0.062975 0.484475 0.31945 0.370175 0.645725 -0.0517 0.148375 -0.141575 0.273275 -0.24225 0.392125 -0.510225 0.6003 -1.02195 1.20365 -1.52915 1.801675 -0.041725 0.04905 -0.04255 0.084025 -0.013625 0.1393 0.305825 0.576075 0.608625 1.15065 0.915975 1.73355 0.07275 0.137775 0.1287 0.2816 0.1302 0.4398 0.003575 0.36035 -0.2604 0.655575 -0.618475 0.708575 -0.2006 0.0293 -0.386825 -0.01355 -0.575325 -0.07155 -0.457975 -0.14155 -0.915975 -0.28085 -1.37775 -0.419375 -0.042625 -0.012725 -0.0589 -0.0296 -0.06655 -0.0754 -0.052675 -0.32325 -0.110525 -0.645725 -0.166525 -0.968975 -0.00145 -0.00885 0.0012 -0.0183 0.002725 -0.03815 0.523075 0.1446 1.044675 0.2869 1.58215 0.43605" stroke-width="0.25"></path>
  <path fill="#3c3a3e" d="m18.406525 10.9432 -0.1688 1.289775c-0.0562 0.42865 -0.112425 0.85635 -0.168825 1.284075l0.013325 0.00915c0.586675 -0.649525 1.173375 -1.30205 1.7714 -1.96065l0.047025 0.271 0.062575 0.367525c0.020975 0.12265 0.04225 0.245275 0.0646 0.367525 0.00915 0.049375 -0.004175 0.0795 -0.03695 0.114325 -0.37925 0.396675 -0.757 0.79485 -1.1355 1.196075 -0.0166 0.017475 -0.03225 0.0355 -0.051175 0.056225l0.022925 0.037375c0.003775 0.006025 0.007625 0.0119 0.01165 0.0176l0.651375 0.915975 1.301725 1.83195c0.0118 0.0166 0.0289 0.0296 0.04345 0.044375l-0.00005 0.009 -0.2454 -0.0005c-0.330375 -0.000775 -0.66055 -0.001775 -0.993625 -0.000325 -0.054725 0 -0.08555 -0.015675 -0.115825 -0.06215 -0.489025 -0.7449 -0.9841 -1.4913 -1.4686 -2.233175l-0.022325 -0.032575c-0.0103 -0.014675 -0.022275 -0.031575 -0.0377 -0.053725l-0.1959 1.4905c-0.038975 0.296025 -0.07785 0.591275 -0.11675 0.8865h-1.082525l0.01845 -0.15585c0.006075 -0.051375 0.012225 -0.102275 0.018875 -0.153 0.078925 -0.6075 0.1587 -1.21075 0.23835 -1.816125l0.0796 -0.6063c0.101425 -0.77215 0.202125 -1.5443 0.305075 -2.31645 0.00295 -0.022775 0.018325 -0.052075 0.03695 -0.0642 0.372425 -0.243 0.7464 -0.483725 1.12035 -0.72445 0.005375 -0.00355 0.013025 -0.003875 0.03225 -0.009475Zm-1.7371 1.476325 0.004775 0.00705 -0.098825 0.748675c-0.01095 0.083275 -0.021925 0.166725 -0.0329 0.250575l-0.363975 -0.000425c-0.080225 -0.000025 -0.160175 0.00015 -0.240125 0.000725 -0.162 0.0012 -0.3096 0.105975 -0.3588 0.257375 -0.01895 0.059125 -0.025975 0.12265 -0.0343 0.184725l-0.3028 2.3013c-0.02545 0.193775 -0.049975 0.387575 -0.0754 0.5844H14.16025l0.043875 -0.347875c0.003675 -0.02865 0.00735 -0.057275 0.011075 -0.085875l0.098225 -0.747925c0.0328 -0.249075 0.065675 -0.497375 0.0986 -0.7434 0.057075 -0.430725 0.10825 -0.862975 0.175625 -1.294475 0.0901 -0.575325 0.662375 -1.0901 1.2415 -1.1128 0.277075 -0.012125 0.554875 -0.00205 0.840275 -0.00205Zm-8.514975 0.210675c0.505675 0.325525 0.79485 0.802425 0.863 1.3929 0.09385 0.840275 -0.21575 1.536725 -0.81 2.119625 -0.39215 0.37925 -0.863 0.619975 -1.400475 0.70175 -0.547575 0.082475 -1.063075 -0.005475 -1.525725 -0.3196l-0.02615 -0.018025c-0.017175 -0.012125 -0.0358 -0.022725 -0.065325 -0.04135l-0.00695 -0.01165 -0.0699 0.52375 -0.022475 0.170425c-0.039575 0.3013 -0.079475 0.603325 -0.117325 0.9084 -0.0044 0.0352 -0.015075 0.04825 -0.052925 0.04795 -0.2975 -0.00115 -0.595 0.0006 -0.89325 0 -0.006825 0 -0.013625 -0.002375 -0.0296 -0.00705l0.0358 -0.2852c0.006025 -0.04755 0.0121 -0.095075 0.018325 -0.142525 0.065625 -0.499625 0.13095 -0.99925 0.197575 -1.498875 0.07645 -0.5723 0.13625 -1.143075 0.2339 -1.710825 0.1726 -1.006825 1.02955 -1.869825 2.0288 -2.08935 0.580625 -0.125675 1.1355 -0.06745 1.6427 0.25965Zm-4.856275 -1.87185c0.467075 0.016875 0.840275 0.235425 1.127925 0.5988 0.042775 0.05375 0.084225 0.108425 0.125875 0.164275l0.1247 0.1681 -0.970025 0.72265c-0.052 -0.08175 -0.0984 -0.1635 -0.152925 -0.23995 -0.140025 -0.196075 -0.31415 -0.342175 -0.567 -0.3596 -0.21045 -0.014825 -0.3906 0.054375 -0.53368 0.2097 -0.127935 0.138525 -0.14459 0.3361 -0.0251325 0.492825 0.1317125 0.172575 0.2755625 0.3361 0.4231625 0.495825 0.069875 0.0757 0.1406 0.15055 0.211625 0.225075l0.21355 0.223275c0.1067 0.11175 0.212875 0.2241 0.3167 0.33895 0.220275 0.242225 0.396675 0.51325 0.451175 0.84785 0.0648 0.393625 -0.01385 0.764575 -0.19985 1.1128 -0.34445 0.639675 -0.8857 1.014375 -1.6048575 1.127925 -0.31643 0.0511 -0.631345 0.041125 -0.93869 -0.049725 -0.4095425 -0.120375 -0.694935 -0.3891 -0.87813 -0.764575 -0.064725 -0.134 -0.1143075 -0.27555 -0.1725975 -0.419375l1.05981 -0.567 0.019515 0.04835c0.0040975 0.00995 0.0082225 0.0195 0.012735 0.02885 0.0120675 0.024075 0.0236975 0.04845 0.0351775 0.072925l0.0342725 0.0736c0.03439 0.073525 0.06999 0.1463 0.1145025 0.21305 0.2218025 0.3293 0.57911 0.429225 0.93869 0.266475 0.0931225 -0.042025 0.1831975 -0.100675 0.2596475 -0.168825 0.233175 -0.2074 0.277075 -0.496575 0.104475 -0.757 -0.099175 -0.149875 -0.223325 -0.284625 -0.34444 -0.418625 -0.2891775 -0.320975 -0.5904675 -0.6321 -0.87056 -0.9614 -0.19455 -0.225575 -0.3270275 -0.4875 -0.36942 -0.787275 -0.0457975 -0.330075 0.0201375 -0.64045 0.1915225 -0.916 0.4261975 -0.689625 1.0446725 -1.04465 1.8622475 -1.02195Zm3.332725 2.56225c-0.6442 0.149625 -1.10945 0.652025 -1.17865 1.309075l-0.002275 0.02325c-0.049975 0.49205 0.214975 0.968975 0.707025 1.143075 0.396675 0.143075 0.779725 0.083275 1.135525 -0.12945 0.4701 -0.2816 0.72445 -0.700225 0.757 -1.294475h-0.005225c-0.016575 -0.084025 -0.028375 -0.208175 -0.065925 -0.324 -0.181675 -0.559425 -0.75475 -0.862975 -1.347475 -0.727475Zm5.958475 2.029375 -0.003025 0.006225c-0.054425 0.415575 -0.105975 0.809975 -0.158975 1.203625 -0.00295 0.02015 -0.018625 0.047325 -0.0355 0.05505 -0.81 0.37395 -1.8698 0.321725 -2.5284 -0.43075 -0.3558 -0.40425 -0.504925 -0.8857 -0.482975 -1.4156 0.0517 -1.233925 1.07495 -2.31645 2.3013 -2.46785 0.715375 -0.0878 1.3399 0.105225 1.8244 0.661625 0.33005 0.3785 0.482975 0.8327 0.46025 1.332325 -0.013525 0.30255 -0.058175 0.6032 -0.09705 0.902525l-0.01045 0.0816c-0.058275 0.4648 -0.121875 0.931125 -0.183175 1.3929l-0.00325 0.019875c-0.0018 0.0103 -0.0039 0.0213 -0.006225 0.03395h-0.9614l0.025025 -0.211125c0.00425 -0.034925 0.008575 -0.069725 0.013125 -0.10455 0.0698 -0.536725 0.146875 -1.07495 0.208175 -1.612425 0.03815 -0.3346 0.01415 -0.666925 -0.139275 -0.97655 -0.162775 -0.3293 -0.4353 -0.504175 -0.794875 -0.542025 -0.743375 -0.078725 -1.45345 0.43755 -1.60485 1.1658 -0.104475 0.482975 0.060325 0.94625 0.445125 1.20365 0.374725 0.24905 0.77215 0.2498 1.180925 0.08855 0.207425 -0.08175 0.38305 -0.21195 0.5511 -0.386825Z" stroke-width="0.25"></path>
  <path fill="#3c3a3e" d="M6.02315 10.9733h0.24905l-0.0589 -0.377 -0.19015 0.377Zm0.288725 0.24375h-0.4144l-0.1317 0.25815h-0.293725l0.64725 -1.211225h0.2831l0.2203 1.211225h-0.271775l-0.03905 -0.25815Zm1.482675 -0.705525h-0.147625l-0.04965 0.279325h0.1476c0.08935 0 0.15975 -0.0585 0.15975 -0.1688 0 -0.069575 -0.04025 -0.106875 -0.101225 -0.110275l-0.00885 -0.00025Zm-0.358825 -0.246025 0.3891 0.002275c0.202875 0 0.34445 0.121125 0.34445 0.328525 0 0.261925 -0.184725 0.43755 -0.44815 0.43755h-0.1673l-0.078725 0.44285H7.22225l0.213475 -1.2112Zm1.59275 0.7078h0.24905l-0.058825 -0.377 -0.190225 0.377Zm0.28795 0.24375h-0.414375l-0.131725 0.25815h-0.293725l0.64725 -1.211225h0.283125l0.220275 1.211225h-0.27175l-0.039075 -0.25815Zm1.605025 0.217575 -0.00045 0.00045c-0.08555 0.03905 -0.179425 0.062375 -0.27405 0.062375 -0.3202 0 -0.520825 -0.239975 -0.520825 -0.5405 0 -0.38455 0.32325 -0.7078 0.7078 -0.7078 0.09615 0 0.1832 0.023075 0.254375 0.062075l-0.035525 0.289925c-0.0532 -0.058825 -0.139275 -0.099925 -0.24525 -0.099925 -0.2203 0 -0.416375 0.1991 -0.416375 0.429975 0 0.175625 0.110525 0.3134 0.28465 0.3134 0.106725 0 0.209675 -0.0411 0.279325 -0.09765l-0.033675 0.287675Zm1.590025 -0.446175h-0.5269l-0.085525 0.48675h-0.2521l0.213475 -1.211225h0.25285l-0.084775 0.478425h0.5261l0.08555 -0.478425h0.25285l-0.213475 1.211225h-0.25285l0.0848 -0.48675Zm0.908025 0.48295 0.2131 -1.2097h0.6707l-0.042625 0.243775h-0.417875l-0.0426 0.234675h0.3838l-0.042625 0.24375h-0.3838l-0.042625 0.24375h0.417875l-0.042625 0.24375H13.4195Z" stroke-width="0.25"></path>
</svg>